solid Created by Gmsh
facet normal -0.0860687 0.256891 0.9626
  outer loop
    vertex 3.06162e-17 -7.4988e-33 0.5
    vertex 0.0841198 0.174468 0.460961
    vertex -0.170163 0.0814903 0.463038
  endloop
endfacet
facet normal -0.255269 -0.584784 -0.769977
  outer loop
    vertex -0.0332186 -0.274727 -0.416439
    vertex -0.188596 -0.336857 -0.317741
    vertex -0.196236 -0.220527 -0.403558
  endloop
endfacet
facet normal -0.200257 -0.655677 -0.728001
  outer loop
    vertex -0.0604165 -0.394776 -0.300835
    vertex -0.188596 -0.336857 -0.317741
    vertex -0.0332186 -0.274727 -0.416439
  endloop
endfacet
facet normal 0.711594 0.665727 0.22459
  outer loop
    vertex 0.288601 0.390585 0.118965
    vertex 0.379091 0.274826 0.175387
    vertex 0.379323 0.324628 0.0270294
  endloop
endfacet
facet normal -0.222604 -0.0227503 0.974643
  outer loop
    vertex -0.170163 0.0814903 0.463038
    vertex -0.0968713 -0.122365 0.475019
    vertex 3.06162e-17 -7.4988e-33 0.5
  endloop
endfacet
facet normal -0.830372 0.457187 -0.318533
  outer loop
    vertex -0.419526 0.15769 -0.221657
    vertex -0.436503 0.234373 -0.0673374
    vertex -0.363323 0.307417 -0.153268
  endloop
endfacet
facet normal 0.65237 0.676507 0.341691
  outer loop
    vertex 0.280591 0.337248 0.239859
    vertex 0.379091 0.274826 0.175387
    vertex 0.288601 0.390585 0.118965
  endloop
endfacet
facet normal -0.269383 -0.0403005 0.96219
  outer loop
    vertex -0.225171 -0.0665794 0.441435
    vertex -0.0968713 -0.122365 0.475019
    vertex -0.170163 0.0814903 0.463038
  endloop
endfacet
facet normal 0.857712 -0.42711 0.286194
  outer loop
    vertex 0.388635 -0.2177 0.227089
    vertex 0.393672 -0.29032 0.103617
    vertex 0.469117 -0.144299 0.0954303
  endloop
endfacet
facet normal 0.10221 -0.624835 -0.774038
  outer loop
    vertex 0.133003 -0.263315 -0.403702
    vertex 0.0724232 -0.37813 -0.319019
    vertex -0.0332186 -0.274727 -0.416439
  endloop
endfacet
facet normal 0.12365 -0.96867 0.215382
  outer loop
    vertex 0.05398 -0.458057 0.193053
    vertex -0.00529791 -0.497493 0.0497238
    vertex 0.13882 -0.476264 0.0624635
  endloop
endfacet
facet normal -0.0120408 -0.692179 -0.721625
  outer loop
    vertex -0.0332186 -0.274727 -0.416439
    vertex 0.0724232 -0.37813 -0.319019
    vertex -0.0604165 -0.394776 -0.300835
  endloop
endfacet
facet normal -0.876879 0.385039 -0.287798
  outer loop
    vertex -0.473213 0.122379 -0.105322
    vertex -0.436503 0.234373 -0.0673374
    vertex -0.419526 0.15769 -0.221657
  endloop
endfacet
facet normal 0.416344 0.650238 -0.635491
  outer loop
    vertex 0.153716 0.288313 -0.37848
    vertex 0.158144 0.386122 -0.275501
    vertex 0.283092 0.310477 -0.271041
  endloop
endfacet
facet normal 0.874041 -0.345309 0.34178
  outer loop
    vertex 0.469117 -0.144299 0.0954303
    vertex 0.436149 -0.102513 0.221957
    vertex 0.388635 -0.2177 0.227089
  endloop
endfacet
facet normal 0.742146 0.424678 0.518525
  outer loop
    vertex 0.42898 0.134909 0.218576
    vertex 0.379091 0.274826 0.175387
    vertex 0.297109 0.226526 0.332283
  endloop
endfacet
facet normal 0.00524878 -0.964711 0.26326
  outer loop
    vertex 0.05398 -0.458057 0.193053
    vertex -0.0793146 -0.471909 0.144952
    vertex -0.00529791 -0.497493 0.0497238
  endloop
endfacet
facet normal 0.668899 0.461474 -0.582765
  outer loop
    vertex 0.283092 0.310477 -0.271041
    vertex 0.383131 0.24434 -0.208588
    vertex 0.343887 0.143758 -0.33328
  endloop
endfacet
facet normal -0.776982 0.478499 -0.409069
  outer loop
    vertex -0.363323 0.307417 -0.153268
    vertex -0.333989 0.252172 -0.273606
    vertex -0.419526 0.15769 -0.221657
  endloop
endfacet
facet normal 0.740653 0.370115 0.560756
  outer loop
    vertex 0.42898 0.134909 0.218576
    vertex 0.297109 0.226526 0.332283
    vertex 0.344205 0.114217 0.344205
  endloop
endfacet
facet normal 0.921909 0.385532 -0.0380631
  outer loop
    vertex 0.45219 0.202739 0.0664914
    vertex 0.483233 0.116644 -0.0536655
    vertex 0.431572 0.236842 -0.0874741
  endloop
endfacet
facet normal 0.95567 0.292023 0.03766
  outer loop
    vertex 0.45219 0.202739 0.0664914
    vertex 0.485085 0.0937558 0.0768298
    vertex 0.483233 0.116644 -0.0536655
  endloop
endfacet
facet normal -0.219207 -0.454073 -0.863578
  outer loop
    vertex -0.0332186 -0.274727 -0.416439
    vertex -0.196236 -0.220527 -0.403558
    vertex -0.0988396 -0.144075 -0.468479
  endloop
endfacet
facet normal 0.696024 -0.707487 0.122526
  outer loop
    vertex 0.393672 -0.29032 0.103617
    vertex 0.279269 -0.407027 0.079609
    vertex 0.355944 -0.350092 -0.0271967
  endloop
endfacet
facet normal 0.663977 -0.703182 0.254304
  outer loop
    vertex 0.297685 -0.342505 0.209938
    vertex 0.279269 -0.407027 0.079609
    vertex 0.393672 -0.29032 0.103617
  endloop
endfacet
facet normal 0.303312 0.414778 -0.857882
  outer loop
    vertex 0.063478 0.243646 -0.431981
    vertex 0.153716 0.288313 -0.37848
    vertex 0.222665 0.143892 -0.423929
  endloop
endfacet
facet normal 0.465778 0.740825 -0.483971
  outer loop
    vertex 0.283092 0.310477 -0.271041
    vertex 0.158144 0.386122 -0.275501
    vertex 0.216943 0.415633 -0.173739
  endloop
endfacet
facet normal 0.652362 0.462142 -0.600707
  outer loop
    vertex 0.343887 0.143758 -0.33328
    vertex 0.255435 0.229081 -0.363696
    vertex 0.283092 0.310477 -0.271041
  endloop
endfacet
facet normal -0.286064 0.546716 0.786937
  outer loop
    vertex -0.218447 0.222283 0.390987
    vertex -0.0785769 0.22722 0.438402
    vertex -0.0788209 0.331738 0.365701
  endloop
endfacet
facet normal -0.190758 -0.409645 0.892078
  outer loop
    vertex -0.0214968 -0.2496 0.43271
    vertex -0.0968713 -0.122365 0.475019
    vertex -0.179024 -0.202224 0.42078
  endloop
endfacet
facet normal 0.815928 0.54771 0.185136
  outer loop
    vertex 0.379323 0.324628 0.0270294
    vertex 0.379091 0.274826 0.175387
    vertex 0.45219 0.202739 0.0664914
  endloop
endfacet
facet normal -0.0268104 -0.32969 0.943708
  outer loop
    vertex 0.0753163 -0.134909 0.475528
    vertex -0.0968713 -0.122365 0.475019
    vertex -0.0214968 -0.2496 0.43271
  endloop
endfacet
facet normal 0.760289 0.36744 -0.535676
  outer loop
    vertex 0.343887 0.143758 -0.33328
    vertex 0.383131 0.24434 -0.208588
    vertex 0.42898 0.134909 -0.218576
  endloop
endfacet
facet normal 0.303949 -0.664149 -0.683023
  outer loop
    vertex 0.226622 -0.343151 -0.284411
    vertex 0.0724232 -0.37813 -0.319019
    vertex 0.133003 -0.263315 -0.403702
  endloop
endfacet
facet normal 0.280094 0.191546 0.940669
  outer loop
    vertex 0.218576 0.134909 0.42898
    vertex 0.0841198 0.174468 0.460961
    vertex 0.154508 -3.78437e-17 0.475528
  endloop
endfacet
facet normal 0.300229 -0.779258 -0.550109
  outer loop
    vertex 0.159962 -0.43132 -0.195896
    vertex 0.0724232 -0.37813 -0.319019
    vertex 0.226622 -0.343151 -0.284411
  endloop
endfacet
facet normal 0.284429 0.382949 -0.878891
  outer loop
    vertex 0.222665 0.143892 -0.423929
    vertex 0.0753163 0.134909 -0.475528
    vertex 0.063478 0.243646 -0.431981
  endloop
endfacet
facet normal 0.0664999 0.836641 -0.543699
  outer loop
    vertex 0.0257135 0.370807 -0.334427
    vertex -0.0434664 0.427473 -0.255691
    vertex 0.0739638 0.447332 -0.210768
  endloop
endfacet
facet normal 0.910775 0.317052 -0.264514
  outer loop
    vertex 0.431572 0.236842 -0.0874741
    vertex 0.483233 0.116644 -0.0536655
    vertex 0.42898 0.134909 -0.218576
  endloop
endfacet
facet normal -0.759559 0.133346 0.636623
  outer loop
    vertex -0.353079 -0.00907413 0.353911
    vertex -0.350211 0.14919 0.324183
    vertex -0.430705 0.0579187 0.247263
  endloop
endfacet
facet normal -0.818457 -0.0354291 0.573474
  outer loop
    vertex -0.353079 -0.00907413 0.353911
    vertex -0.430705 0.0579187 0.247263
    vertex -0.420576 -0.0977846 0.252099
  endloop
endfacet
facet normal 0.452088 -0.0914433 0.887273
  outer loop
    vertex 0.154508 -3.78437e-17 0.475528
    vertex 0.218576 -0.134909 0.42898
    vertex 0.293893 -7.19829e-17 0.404508
  endloop
endfacet
facet normal -0.939032 -0.335673 0.0744454
  outer loop
    vertex -0.452851 -0.172761 0.1228
    vertex -0.492152 -0.0874662 0.0116569
    vertex -0.445872 -0.224944 -0.0244623
  endloop
endfacet
facet normal -0.809791 0.279343 0.515953
  outer loop
    vertex -0.350211 0.14919 0.324183
    vertex -0.405844 0.207953 0.205051
    vertex -0.430705 0.0579187 0.247263
  endloop
endfacet
facet normal -0.353513 0.431359 -0.830035
  outer loop
    vertex -0.0928921 0.24916 -0.423427
    vertex -0.193402 0.130758 -0.442151
    vertex -0.235252 0.256476 -0.358993
  endloop
endfacet
facet normal -0.748216 -0.338515 0.570597
  outer loop
    vertex -0.368519 -0.244384 0.233388
    vertex -0.314315 -0.160841 0.354029
    vertex -0.420576 -0.0977846 0.252099
  endloop
endfacet
facet normal 0.364485 0.930653 -0.0321667
  outer loop
    vertex 0.154416 0.470394 0.0698967
    vertex 0.261608 0.424885 -0.0321522
    vertex 0.122658 0.477543 -0.0831133
  endloop
endfacet
facet normal -0.424621 0.661156 -0.618523
  outer loop
    vertex -0.126511 0.362193 -0.320641
    vertex -0.235252 0.256476 -0.358993
    vertex -0.260339 0.356383 -0.234978
  endloop
endfacet
facet normal -0.643154 -0.463211 0.609744
  outer loop
    vertex -0.368519 -0.244384 0.233388
    vertex -0.260154 -0.292112 0.311433
    vertex -0.314315 -0.160841 0.354029
  endloop
endfacet
facet normal -0.735621 -0.187386 0.650959
  outer loop
    vertex -0.314315 -0.160841 0.354029
    vertex -0.353079 -0.00907413 0.353911
    vertex -0.420576 -0.0977846 0.252099
  endloop
endfacet
facet normal -0.708033 0.443606 0.549457
  outer loop
    vertex -0.350211 0.14919 0.324183
    vertex -0.301971 0.292563 0.270593
    vertex -0.405844 0.207953 0.205051
  endloop
endfacet
facet normal 0.407331 0.893949 -0.186915
  outer loop
    vertex 0.261608 0.424885 -0.0321522
    vertex 0.216943 0.415633 -0.173739
    vertex 0.122658 0.477543 -0.0831133
  endloop
endfacet
facet normal 0.194142 0.980958 0.00553897
  outer loop
    vertex 0.154416 0.470394 0.0698967
    vertex 0.122658 0.477543 -0.0831133
    vertex 0.00882382 0.499485 0.0209124
  endloop
endfacet
facet normal 0.0988654 -0.44869 -0.888202
  outer loop
    vertex 0.133003 -0.263315 -0.403702
    vertex -0.0332186 -0.274727 -0.416439
    vertex 0.0698332 -0.131524 -0.47731
  endloop
endfacet
facet normal 0.280599 -0.361997 -0.888944
  outer loop
    vertex 0.218576 -0.134909 -0.42898
    vertex 0.133003 -0.263315 -0.403702
    vertex 0.0698332 -0.131524 -0.47731
  endloop
endfacet
facet normal -0.0222524 0.604363 -0.796398
  outer loop
    vertex 0.0257135 0.370807 -0.334427
    vertex 0.063478 0.243646 -0.431981
    vertex -0.0928921 0.24916 -0.423427
  endloop
endfacet
facet normal 0.283643 0.903265 -0.321961
  outer loop
    vertex 0.216943 0.415633 -0.173739
    vertex 0.0739638 0.447332 -0.210768
    vertex 0.122658 0.477543 -0.0831133
  endloop
endfacet
facet normal -0.604145 -0.153703 0.78191
  outer loop
    vertex -0.314315 -0.160841 0.354029
    vertex -0.225171 -0.0665794 0.441435
    vertex -0.353079 -0.00907413 0.353911
  endloop
endfacet
facet normal -0.717433 0.563526 0.409545
  outer loop
    vertex -0.301971 0.292563 0.270593
    vertex -0.343279 0.336315 0.138028
    vertex -0.405844 0.207953 0.205051
  endloop
endfacet
facet normal -0.58955 0.449268 0.671259
  outer loop
    vertex -0.350211 0.14919 0.324183
    vertex -0.218447 0.222283 0.390987
    vertex -0.301971 0.292563 0.270593
  endloop
endfacet
facet normal 0.560277 0.796087 -0.228769
  outer loop
    vertex 0.261608 0.424885 -0.0321522
    vertex 0.345174 0.339166 -0.125783
    vertex 0.216943 0.415633 -0.173739
  endloop
endfacet
facet normal -0.0347417 0.420892 -0.906445
  outer loop
    vertex 0.063478 0.243646 -0.431981
    vertex -0.0622472 0.136224 -0.477041
    vertex -0.0928921 0.24916 -0.423427
  endloop
endfacet
facet normal -0.58055 0.701955 0.412578
  outer loop
    vertex -0.301971 0.292563 0.270593
    vertex -0.220786 0.403446 0.196174
    vertex -0.343279 0.336315 0.138028
  endloop
endfacet
facet normal -0.0202593 -0.378729 -0.925286
  outer loop
    vertex -0.0332186 -0.274727 -0.416439
    vertex -0.0988396 -0.144075 -0.468479
    vertex 0.0698332 -0.131524 -0.47731
  endloop
endfacet
facet normal -0.840182 -0.351098 0.41331
  outer loop
    vertex -0.368519 -0.244384 0.233388
    vertex -0.420576 -0.0977846 0.252099
    vertex -0.452851 -0.172761 0.1228
  endloop
endfacet
facet normal 0.669148 0.738893 -0.0792397
  outer loop
    vertex 0.261608 0.424885 -0.0321522
    vertex 0.379323 0.324628 0.0270294
    vertex 0.345174 0.339166 -0.125783
  endloop
endfacet
facet normal -0.556481 0.788476 0.261981
  outer loop
    vertex -0.220786 0.403446 0.196174
    vertex -0.250007 0.429356 0.0561283
    vertex -0.343279 0.336315 0.138028
  endloop
endfacet
facet normal 0.025272 0.679402 0.733331
  outer loop
    vertex 0.0546123 0.392739 0.304588
    vertex -0.0788209 0.331738 0.365701
    vertex 0.0593555 0.275624 0.412927
  endloop
endfacet
facet normal 0.203213 0.669321 0.714643
  outer loop
    vertex 0.0546123 0.392739 0.304588
    vertex 0.0593555 0.275624 0.412927
    vertex 0.189046 0.317974 0.336385
  endloop
endfacet
facet normal 0.574749 0.720526 -0.387951
  outer loop
    vertex 0.345174 0.339166 -0.125783
    vertex 0.283092 0.310477 -0.271041
    vertex 0.216943 0.415633 -0.173739
  endloop
endfacet
facet normal -0.388283 0.888279 0.245351
  outer loop
    vertex -0.220786 0.403446 0.196174
    vertex -0.110866 0.472783 0.119101
    vertex -0.250007 0.429356 0.0561283
  endloop
endfacet
facet normal -0.796315 0.535252 0.281759
  outer loop
    vertex -0.343279 0.336315 0.138028
    vertex -0.432653 0.242307 0.0640225
    vertex -0.405844 0.207953 0.205051
  endloop
endfacet
facet normal -0.336673 0.936501 0.0980611
  outer loop
    vertex -0.110866 0.472783 0.119101
    vertex -0.135593 0.480006 -0.034772
    vertex -0.250007 0.429356 0.0561283
  endloop
endfacet
facet normal -0.271375 0.875252 0.400362
  outer loop
    vertex -0.220786 0.403446 0.196174
    vertex -0.0685574 0.421181 0.260589
    vertex -0.110866 0.472783 0.119101
  endloop
endfacet
facet normal -0.0486694 0.570276 0.82001
  outer loop
    vertex -0.0788209 0.331738 0.365701
    vertex -0.0785769 0.22722 0.438402
    vertex 0.0593555 0.275624 0.412927
  endloop
endfacet
facet normal 0.286128 0.761707 0.58132
  outer loop
    vertex 0.0546123 0.392739 0.304588
    vertex 0.189046 0.317974 0.336385
    vertex 0.177306 0.415375 0.214537
  endloop
endfacet
facet normal 0.182857 0.865328 0.46666
  outer loop
    vertex 0.0361705 0.467983 0.172288
    vertex 0.0546123 0.392739 0.304588
    vertex 0.177306 0.415375 0.214537
  endloop
endfacet
facet normal 0.779868 0.615148 -0.115755
  outer loop
    vertex 0.379323 0.324628 0.0270294
    vertex 0.431572 0.236842 -0.0874741
    vertex 0.345174 0.339166 -0.125783
  endloop
endfacet
facet normal -0.160539 0.984399 0.072006
  outer loop
    vertex -0.110866 0.472783 0.119101
    vertex 0.00882382 0.499485 0.0209124
    vertex -0.135593 0.480006 -0.034772
  endloop
endfacet
facet normal 0.452088 -0.0914433 -0.887273
  outer loop
    vertex 0.293893 -7.19829e-17 -0.404508
    vertex 0.218576 -0.134909 -0.42898
    vertex 0.154508 -3.78437e-17 -0.475528
  endloop
endfacet
facet normal 0.418286 0.728722 0.542219
  outer loop
    vertex 0.189046 0.317974 0.336385
    vertex 0.280591 0.337248 0.239859
    vertex 0.177306 0.415375 0.214537
  endloop
endfacet
facet normal -0.81592 -0.492112 0.30348
  outer loop
    vertex -0.382378 -0.30888 0.0915433
    vertex -0.368519 -0.244384 0.233388
    vertex -0.452851 -0.172761 0.1228
  endloop
endfacet
facet normal -0.437722 0.897677 -0.0507597
  outer loop
    vertex -0.135593 0.480006 -0.034772
    vertex -0.264841 0.413661 -0.0935091
    vertex -0.250007 0.429356 0.0561283
  endloop
endfacet
facet normal 0.887273 -0.0914433 -0.452088
  outer loop
    vertex 0.475528 -1.16471e-16 -0.154508
    vertex 0.42898 -0.134909 -0.218576
    vertex 0.404508 -9.9076e-17 -0.293893
  endloop
endfacet
facet normal 0.452088 0.0914433 0.887273
  outer loop
    vertex 0.293893 -7.19829e-17 0.404508
    vertex 0.218576 0.134909 0.42898
    vertex 0.154508 -3.78437e-17 0.475528
  endloop
endfacet
facet normal -0.367399 0.905128 -0.213918
  outer loop
    vertex -0.135593 0.480006 -0.034772
    vertex -0.141363 0.441742 -0.186764
    vertex -0.264841 0.413661 -0.0935091
  endloop
endfacet
facet normal 0.451533 0.103911 -0.886183
  outer loop
    vertex 0.154508 -3.78437e-17 -0.475528
    vertex 0.222665 0.143892 -0.423929
    vertex 0.293893 -7.19829e-17 -0.404508
  endloop
endfacet
facet normal 0.155779 0.0914433 -0.98355
  outer loop
    vertex 3.06162e-17 -7.4988e-33 -0.5
    vertex 0.0753163 0.134909 -0.475528
    vertex 0.154508 -3.78437e-17 -0.475528
  endloop
endfacet
facet normal -0.449566 0.822891 -0.347477
  outer loop
    vertex -0.141363 0.441742 -0.186764
    vertex -0.260339 0.356383 -0.234978
    vertex -0.264841 0.413661 -0.0935091
  endloop
endfacet
facet normal 0.155779 -0.0914433 0.98355
  outer loop
    vertex 3.06162e-17 -7.4988e-33 0.5
    vertex 0.0753163 -0.134909 0.475528
    vertex 0.154508 -3.78437e-17 0.475528
  endloop
endfacet
facet normal 0.0149986 0.431893 0.9018
  outer loop
    vertex -0.0785769 0.22722 0.438402
    vertex 0.0841198 0.174468 0.460961
    vertex 0.0593555 0.275624 0.412927
  endloop
endfacet
facet normal 0.300217 -0.180593 -0.936619
  outer loop
    vertex 0.218576 -0.134909 -0.42898
    vertex 0.0698332 -0.131524 -0.47731
    vertex 0.154508 -3.78437e-17 -0.475528
  endloop
endfacet
facet normal -0.912805 0.179873 -0.36665
  outer loop
    vertex -0.460848 0.00456691 -0.193904
    vertex -0.473213 0.122379 -0.105322
    vertex -0.419526 0.15769 -0.221657
  endloop
endfacet
facet normal 0.796844 0.177819 -0.577425
  outer loop
    vertex 0.404508 -9.9076e-17 -0.293893
    vertex 0.343887 0.143758 -0.33328
    vertex 0.42898 0.134909 -0.218576
  endloop
endfacet
facet normal -0.502028 -0.447312 0.740189
  outer loop
    vertex -0.260154 -0.292112 0.311433
    vertex -0.179024 -0.202224 0.42078
    vertex -0.314315 -0.160841 0.354029
  endloop
endfacet
facet normal 0.887273 0.0914433 -0.452088
  outer loop
    vertex 0.404508 -9.9076e-17 -0.293893
    vertex 0.42898 0.134909 -0.218576
    vertex 0.475528 -1.16471e-16 -0.154508
  endloop
endfacet
facet normal -0.757591 -0.418986 -0.500507
  outer loop
    vertex -0.397816 -0.249814 -0.171276
    vertex -0.406072 -0.124103 -0.264014
    vertex -0.313804 -0.244224 -0.303119
  endloop
endfacet
facet normal 0.887273 0.0914433 0.452088
  outer loop
    vertex 0.475528 -1.16471e-16 0.154508
    vertex 0.42898 0.134909 0.218576
    vertex 0.404508 -9.9076e-17 0.293893
  endloop
endfacet
facet normal -0.846789 0.135271 -0.514442
  outer loop
    vertex -0.460848 0.00456691 -0.193904
    vertex -0.419526 0.15769 -0.221657
    vertex -0.378458 0.0167021 -0.326329
  endloop
endfacet
facet normal -0.104899 0.651802 -0.751099
  outer loop
    vertex -0.126511 0.362193 -0.320641
    vertex 0.0257135 0.370807 -0.334427
    vertex -0.0928921 0.24916 -0.423427
  endloop
endfacet
facet normal -0.698449 -0.329715 -0.635182
  outer loop
    vertex -0.406072 -0.124103 -0.264014
    vertex -0.308448 -0.113811 -0.376706
    vertex -0.313804 -0.244224 -0.303119
  endloop
endfacet
facet normal -0.8683 -0.479076 0.128614
  outer loop
    vertex -0.382378 -0.30888 0.0915433
    vertex -0.452851 -0.172761 0.1228
    vertex -0.445872 -0.224944 -0.0244623
  endloop
endfacet
facet normal -0.308173 0.588229 -0.747674
  outer loop
    vertex -0.126511 0.362193 -0.320641
    vertex -0.0928921 0.24916 -0.423427
    vertex -0.235252 0.256476 -0.358993
  endloop
endfacet
facet normal 0.249363 0.917596 0.309574
  outer loop
    vertex 0.0361705 0.467983 0.172288
    vertex 0.177306 0.415375 0.214537
    vertex 0.154416 0.470394 0.0698967
  endloop
endfacet
facet normal -0.0445392 0.976419 0.211238
  outer loop
    vertex -0.110866 0.472783 0.119101
    vertex 0.0361705 0.467983 0.172288
    vertex 0.00882382 0.499485 0.0209124
  endloop
endfacet
facet normal -0.844138 -0.0697026 -0.531576
  outer loop
    vertex -0.406072 -0.124103 -0.264014
    vertex -0.460848 0.00456691 -0.193904
    vertex -0.378458 0.0167021 -0.326329
  endloop
endfacet
facet normal -0.550163 -0.39311 -0.73674
  outer loop
    vertex -0.308448 -0.113811 -0.376706
    vertex -0.196236 -0.220527 -0.403558
    vertex -0.313804 -0.244224 -0.303119
  endloop
endfacet
facet normal -0.35796 0.784748 -0.505999
  outer loop
    vertex -0.141363 0.441742 -0.186764
    vertex -0.126511 0.362193 -0.320641
    vertex -0.260339 0.356383 -0.234978
  endloop
endfacet
facet normal 0.134696 0.974677 0.178496
  outer loop
    vertex 0.0361705 0.467983 0.172288
    vertex 0.154416 0.470394 0.0698967
    vertex 0.00882382 0.499485 0.0209124
  endloop
endfacet
facet normal -0.802071 -0.597188 0.00690551
  outer loop
    vertex -0.35456 -0.347956 -0.0566905
    vertex -0.382378 -0.30888 0.0915433
    vertex -0.445872 -0.224944 -0.0244623
  endloop
endfacet
facet normal -0.53554 -0.636214 -0.555363
  outer loop
    vertex -0.313804 -0.244224 -0.303119
    vertex -0.188596 -0.336857 -0.317741
    vertex -0.287696 -0.357542 -0.198481
  endloop
endfacet
facet normal -0.600324 0.734475 -0.316478
  outer loop
    vertex -0.260339 0.356383 -0.234978
    vertex -0.363323 0.307417 -0.153268
    vertex -0.264841 0.413661 -0.0935091
  endloop
endfacet
facet normal -0.741296 -0.144672 -0.655401
  outer loop
    vertex -0.406072 -0.124103 -0.264014
    vertex -0.378458 0.0167021 -0.326329
    vertex -0.308448 -0.113811 -0.376706
  endloop
endfacet
facet normal -0.812038 -0.5579 -0.171295
  outer loop
    vertex -0.35456 -0.347956 -0.0566905
    vertex -0.445872 -0.224944 -0.0244623
    vertex -0.397816 -0.249814 -0.171276
  endloop
endfacet
facet normal -0.677353 -0.577215 -0.456087
  outer loop
    vertex -0.397816 -0.249814 -0.171276
    vertex -0.313804 -0.244224 -0.303119
    vertex -0.287696 -0.357542 -0.198481
  endloop
endfacet
facet normal -0.705022 -0.647775 -0.288672
  outer loop
    vertex -0.35456 -0.347956 -0.0566905
    vertex -0.397816 -0.249814 -0.171276
    vertex -0.287696 -0.357542 -0.198481
  endloop
endfacet
facet normal -0.590135 -0.775057 -0.225891
  outer loop
    vertex -0.228388 -0.438029 -0.0772606
    vertex -0.35456 -0.347956 -0.0566905
    vertex -0.287696 -0.357542 -0.198481
  endloop
endfacet
facet normal -0.450498 -0.829426 -0.330309
  outer loop
    vertex -0.228388 -0.438029 -0.0772606
    vertex -0.287696 -0.357542 -0.198481
    vertex -0.148523 -0.427619 -0.212328
  endloop
endfacet
facet normal -0.311798 -0.94688 -0.0787447
  outer loop
    vertex -0.0797061 -0.486449 -0.0837514
    vertex -0.151188 -0.474003 0.0496309
    vertex -0.228388 -0.438029 -0.0772606
  endloop
endfacet
facet normal -0.141349 -0.873949 -0.465009
  outer loop
    vertex -0.148523 -0.427619 -0.212328
    vertex -0.0604165 -0.394776 -0.300835
    vertex 0.00582706 -0.453057 -0.211437
  endloop
endfacet
facet normal -0.30952 -0.916437 -0.253655
  outer loop
    vertex -0.0797061 -0.486449 -0.0837514
    vertex -0.228388 -0.438029 -0.0772606
    vertex -0.148523 -0.427619 -0.212328
  endloop
endfacet
facet normal -0.150793 -0.926991 -0.343438
  outer loop
    vertex -0.0797061 -0.486449 -0.0837514
    vertex -0.148523 -0.427619 -0.212328
    vertex 0.00582706 -0.453057 -0.211437
  endloop
endfacet
facet normal 0.0018864 -0.96777 -0.251827
  outer loop
    vertex 0.0764474 -0.488359 -0.0752416
    vertex -0.0797061 -0.486449 -0.0837514
    vertex 0.00582706 -0.453057 -0.211437
  endloop
endfacet
facet normal 0.296594 -0.953664 -0.0505769
  outer loop
    vertex 0.224749 -0.443362 -0.0540193
    vertex 0.13882 -0.476264 0.0624635
    vertex 0.0764474 -0.488359 -0.0752416
  endloop
endfacet
facet normal 0.164186 -0.930858 -0.326415
  outer loop
    vertex 0.0764474 -0.488359 -0.0752416
    vertex 0.00582706 -0.453057 -0.211437
    vertex 0.159962 -0.43132 -0.195896
  endloop
endfacet
facet normal 0.462608 -0.777479 -0.426052
  outer loop
    vertex 0.159962 -0.43132 -0.195896
    vertex 0.226622 -0.343151 -0.284411
    vertex 0.298513 -0.364577 -0.167253
  endloop
endfacet
facet normal 0.311982 -0.924052 -0.220896
  outer loop
    vertex 0.224749 -0.443362 -0.0540193
    vertex 0.0764474 -0.488359 -0.0752416
    vertex 0.159962 -0.43132 -0.195896
  endloop
endfacet
facet normal -0.111559 -0.753318 0.648126
  outer loop
    vertex 0.0258578 -0.359815 0.346214
    vertex -0.128417 -0.336239 0.347062
    vertex -0.0872428 -0.420187 0.256577
  endloop
endfacet
facet normal 0.463099 -0.83999 -0.282766
  outer loop
    vertex 0.224749 -0.443362 -0.0540193
    vertex 0.159962 -0.43132 -0.195896
    vertex 0.298513 -0.364577 -0.167253
  endloop
endfacet
facet normal 0.0186431 -0.840019 0.542237
  outer loop
    vertex 0.0258578 -0.359815 0.346214
    vertex -0.0872428 -0.420187 0.256577
    vertex 0.05398 -0.458057 0.193053
  endloop
endfacet
facet normal 0.593552 -0.788352 -0.161855
  outer loop
    vertex 0.355944 -0.350092 -0.0271967
    vertex 0.224749 -0.443362 -0.0540193
    vertex 0.298513 -0.364577 -0.167253
  endloop
endfacet
facet normal 0.166894 -0.815709 0.553864
  outer loop
    vertex 0.0258578 -0.359815 0.346214
    vertex 0.05398 -0.458057 0.193053
    vertex 0.173759 -0.363995 0.295492
  endloop
endfacet
facet normal 0.649085 -0.545828 0.529868
  outer loop
    vertex 0.297685 -0.342505 0.209938
    vertex 0.388635 -0.2177 0.227089
    vertex 0.271732 -0.2496 0.337434
  endloop
endfacet
facet normal 0.716185 -0.660524 -0.225361
  outer loop
    vertex 0.407623 -0.259521 -0.128424
    vertex 0.355944 -0.350092 -0.0271967
    vertex 0.298513 -0.364577 -0.167253
  endloop
endfacet
facet normal 0.22456 -0.667637 0.709812
  outer loop
    vertex 0.131758 -0.261155 0.40551
    vertex 0.0258578 -0.359815 0.346214
    vertex 0.173759 -0.363995 0.295492
  endloop
endfacet
facet normal 0.507038 -0.644204 0.572638
  outer loop
    vertex 0.173759 -0.363995 0.295492
    vertex 0.297685 -0.342505 0.209938
    vertex 0.271732 -0.2496 0.337434
  endloop
endfacet
facet normal 0.710007 -0.602933 -0.363816
  outer loop
    vertex 0.407623 -0.259521 -0.128424
    vertex 0.298513 -0.364577 -0.167253
    vertex 0.348346 -0.253997 -0.25326
  endloop
endfacet
facet normal 0.755924 -0.350864 -0.552697
  outer loop
    vertex 0.348346 -0.253997 -0.25326
    vertex 0.346082 -0.123942 -0.338919
    vertex 0.42898 -0.134909 -0.218576
  endloop
endfacet
facet normal 0.39121 -0.593065 0.703725
  outer loop
    vertex 0.131758 -0.261155 0.40551
    vertex 0.173759 -0.363995 0.295492
    vertex 0.271732 -0.2496 0.337434
  endloop
endfacet
facet normal -0.326639 0.587685 0.740226
  outer loop
    vertex -0.0788209 0.331738 0.365701
    vertex -0.188551 0.351228 0.301807
    vertex -0.218447 0.222283 0.390987
  endloop
endfacet
facet normal 0.858517 0.512783 -0.0013875
  outer loop
    vertex 0.379323 0.324628 0.0270294
    vertex 0.45219 0.202739 0.0664914
    vertex 0.431572 0.236842 -0.0874741
  endloop
endfacet
facet normal 0.156797 0.811281 -0.563238
  outer loop
    vertex 0.0739638 0.447332 -0.210768
    vertex 0.158144 0.386122 -0.275501
    vertex 0.0257135 0.370807 -0.334427
  endloop
endfacet
facet normal 0.808096 -0.429866 -0.402735
  outer loop
    vertex 0.407623 -0.259521 -0.128424
    vertex 0.348346 -0.253997 -0.25326
    vertex 0.42898 -0.134909 -0.218576
  endloop
endfacet
facet normal -0.400127 0.0835412 -0.912644
  outer loop
    vertex -0.193402 0.130758 -0.442151
    vertex -0.12742 -0.00459613 -0.48347
    vertex -0.270337 -0.00239065 -0.420609
  endloop
endfacet
facet normal 0.154803 0.144064 0.977385
  outer loop
    vertex 0.154508 -3.78437e-17 0.475528
    vertex 0.0841198 0.174468 0.460961
    vertex 3.06162e-17 -7.4988e-33 0.5
  endloop
endfacet
facet normal 0.124997 -0.437893 0.890295
  outer loop
    vertex 0.0753163 -0.134909 0.475528
    vertex -0.0214968 -0.2496 0.43271
    vertex 0.131758 -0.261155 0.40551
  endloop
endfacet
facet normal 0.422178 -0.437893 0.793736
  outer loop
    vertex 0.131758 -0.261155 0.40551
    vertex 0.271732 -0.2496 0.337434
    vertex 0.218576 -0.134909 0.42898
  endloop
endfacet
facet normal 0.981985 -0.107306 0.155531
  outer loop
    vertex 0.475528 -1.16471e-16 0.154508
    vertex 0.469117 -0.144299 0.0954303
    vertex 0.5 -1.22465e-16 7.65714e-16
  endloop
endfacet
facet normal 0.169983 -0.854887 -0.490177
  outer loop
    vertex 0.00582706 -0.453057 -0.211437
    vertex 0.0724232 -0.37813 -0.319019
    vertex 0.159962 -0.43132 -0.195896
  endloop
endfacet
facet normal 0.862752 0.390765 -0.320877
  outer loop
    vertex 0.42898 0.134909 -0.218576
    vertex 0.383131 0.24434 -0.208588
    vertex 0.431572 0.236842 -0.0874741
  endloop
endfacet
facet normal 0.681602 -0.416288 0.601767
  outer loop
    vertex 0.388635 -0.2177 0.227089
    vertex 0.352575 -0.125954 0.331401
    vertex 0.271732 -0.2496 0.337434
  endloop
endfacet
facet normal 0.304055 -0.178482 0.935786
  outer loop
    vertex 0.154508 -3.78437e-17 0.475528
    vertex 0.0753163 -0.134909 0.475528
    vertex 0.218576 -0.134909 0.42898
  endloop
endfacet
facet normal 0.314764 0.184769 -0.931012
  outer loop
    vertex 0.154508 -3.78437e-17 -0.475528
    vertex 0.0753163 0.134909 -0.475528
    vertex 0.222665 0.143892 -0.423929
  endloop
endfacet
facet normal 0.703281 0.103881 -0.703281
  outer loop
    vertex 0.293893 -7.19829e-17 -0.404508
    vertex 0.343887 0.143758 -0.33328
    vertex 0.404508 -9.9076e-17 -0.293893
  endloop
endfacet
facet normal 0.155841 -0.0870025 -0.983943
  outer loop
    vertex 0.154508 -3.78437e-17 -0.475528
    vertex 0.0698332 -0.131524 -0.47731
    vertex 3.06162e-17 -7.4988e-33 -0.5
  endloop
endfacet
facet normal 0.983992 -0.086434 -0.155849
  outer loop
    vertex 0.5 -1.22465e-16 7.65714e-16
    vertex 0.476661 -0.131293 -0.0745428
    vertex 0.475528 -1.16471e-16 -0.154508
  endloop
endfacet
facet normal 0.888813 -0.358687 -0.285227
  outer loop
    vertex 0.476661 -0.131293 -0.0745428
    vertex 0.407623 -0.259521 -0.128424
    vertex 0.42898 -0.134909 -0.218576
  endloop
endfacet
facet normal -0.556606 0.190794 -0.808571
  outer loop
    vertex -0.193402 0.130758 -0.442151
    vertex -0.270337 -0.00239065 -0.420609
    vertex -0.333351 0.149349 -0.341426
  endloop
endfacet
facet normal -0.962224 -0.192547 0.192486
  outer loop
    vertex -0.452851 -0.172761 0.1228
    vertex -0.478642 -0.0241338 0.142546
    vertex -0.492152 -0.0874662 0.0116569
  endloop
endfacet
facet normal 0.935526 -0.177835 -0.30523
  outer loop
    vertex 0.475528 -1.16471e-16 -0.154508
    vertex 0.476661 -0.131293 -0.0745428
    vertex 0.42898 -0.134909 -0.218576
  endloop
endfacet
facet normal 0.981192 -0.190854 0.0289432
  outer loop
    vertex 0.469117 -0.144299 0.0954303
    vertex 0.476661 -0.131293 -0.0745428
    vertex 0.5 -1.22465e-16 7.65714e-16
  endloop
endfacet
facet normal 0.372829 0.435792 -0.819197
  outer loop
    vertex 0.153716 0.288313 -0.37848
    vertex 0.255435 0.229081 -0.363696
    vertex 0.222665 0.143892 -0.423929
  endloop
endfacet
facet normal -0.325634 -0.33573 -0.883882
  outer loop
    vertex -0.196236 -0.220527 -0.403558
    vertex -0.206356 -0.108979 -0.4422
    vertex -0.0988396 -0.144075 -0.468479
  endloop
endfacet
facet normal 0.0981776 -0.587942 0.802923
  outer loop
    vertex 0.131758 -0.261155 0.40551
    vertex -0.0214968 -0.2496 0.43271
    vertex 0.0258578 -0.359815 0.346214
  endloop
endfacet
facet normal 0.287963 -0.362796 0.88626
  outer loop
    vertex 0.0753163 -0.134909 0.475528
    vertex 0.131758 -0.261155 0.40551
    vertex 0.218576 -0.134909 0.42898
  endloop
endfacet
facet normal -0.517511 0.345528 -0.782811
  outer loop
    vertex -0.193402 0.130758 -0.442151
    vertex -0.333351 0.149349 -0.341426
    vertex -0.235252 0.256476 -0.358993
  endloop
endfacet
facet normal -0.31217 0.345772 0.884868
  outer loop
    vertex -0.218447 0.222283 0.390987
    vertex -0.170163 0.0814903 0.463038
    vertex -0.0785769 0.22722 0.438402
  endloop
endfacet
facet normal 0.594571 -0.6432 -0.482472
  outer loop
    vertex 0.298513 -0.364577 -0.167253
    vertex 0.226622 -0.343151 -0.284411
    vertex 0.348346 -0.253997 -0.25326
  endloop
endfacet
facet normal -0.43056 -0.758407 -0.489323
  outer loop
    vertex -0.287696 -0.357542 -0.198481
    vertex -0.188596 -0.336857 -0.317741
    vertex -0.148523 -0.427619 -0.212328
  endloop
endfacet
facet normal -0.480698 -0.540791 -0.690271
  outer loop
    vertex -0.196236 -0.220527 -0.403558
    vertex -0.188596 -0.336857 -0.317741
    vertex -0.313804 -0.244224 -0.303119
  endloop
endfacet
facet normal -0.102886 0.924186 0.367825
  outer loop
    vertex -0.110866 0.472783 0.119101
    vertex -0.0685574 0.421181 0.260589
    vertex 0.0361705 0.467983 0.172288
  endloop
endfacet
facet normal -0.493591 -0.292633 0.818984
  outer loop
    vertex -0.314315 -0.160841 0.354029
    vertex -0.179024 -0.202224 0.42078
    vertex -0.225171 -0.0665794 0.441435
  endloop
endfacet
facet normal -0.253963 0.3577 -0.89864
  outer loop
    vertex -0.0928921 0.24916 -0.423427
    vertex -0.0622472 0.136224 -0.477041
    vertex -0.193402 0.130758 -0.442151
  endloop
endfacet
facet normal 0.939962 -0.164242 0.299158
  outer loop
    vertex 0.475528 -1.16471e-16 0.154508
    vertex 0.436149 -0.102513 0.221957
    vertex 0.469117 -0.144299 0.0954303
  endloop
endfacet
facet normal 0.725656 -0.579738 0.370576
  outer loop
    vertex 0.297685 -0.342505 0.209938
    vertex 0.393672 -0.29032 0.103617
    vertex 0.388635 -0.2177 0.227089
  endloop
endfacet
facet normal -0.950836 -0.297297 -0.0867461
  outer loop
    vertex -0.492152 -0.0874662 0.0116569
    vertex -0.47048 -0.117962 -0.121383
    vertex -0.445872 -0.224944 -0.0244623
  endloop
endfacet
facet normal 0.628306 0.775349 0.0637565
  outer loop
    vertex 0.261608 0.424885 -0.0321522
    vertex 0.288601 0.390585 0.118965
    vertex 0.379323 0.324628 0.0270294
  endloop
endfacet
facet normal 0.803841 -0.172076 -0.569412
  outer loop
    vertex 0.42898 -0.134909 -0.218576
    vertex 0.346082 -0.123942 -0.338919
    vertex 0.404508 -9.9076e-17 -0.293893
  endloop
endfacet
facet normal -0.915105 -0.204933 0.347255
  outer loop
    vertex -0.420576 -0.0977846 0.252099
    vertex -0.478642 -0.0241338 0.142546
    vertex -0.452851 -0.172761 0.1228
  endloop
endfacet
facet normal 0.4772 0.871554 0.112584
  outer loop
    vertex 0.154416 0.470394 0.0698967
    vertex 0.288601 0.390585 0.118965
    vertex 0.261608 0.424885 -0.0321522
  endloop
endfacet
facet normal 0.787904 -0.301073 0.53718
  outer loop
    vertex 0.388635 -0.2177 0.227089
    vertex 0.436149 -0.102513 0.221957
    vertex 0.352575 -0.125954 0.331401
  endloop
endfacet
facet normal 0.581534 -0.813363 -0.0161049
  outer loop
    vertex 0.355944 -0.350092 -0.0271967
    vertex 0.279269 -0.407027 0.079609
    vertex 0.224749 -0.443362 -0.0540193
  endloop
endfacet
facet normal 0.58864 0.18518 -0.7869
  outer loop
    vertex 0.222665 0.143892 -0.423929
    vertex 0.343887 0.143758 -0.33328
    vertex 0.293893 -7.19829e-17 -0.404508
  endloop
endfacet
facet normal 0.446673 0.601834 -0.662027
  outer loop
    vertex 0.283092 0.310477 -0.271041
    vertex 0.255435 0.229081 -0.363696
    vertex 0.153716 0.288313 -0.37848
  endloop
endfacet
facet normal -0.887045 -0.404939 -0.221758
  outer loop
    vertex -0.445872 -0.224944 -0.0244623
    vertex -0.47048 -0.117962 -0.121383
    vertex -0.397816 -0.249814 -0.171276
  endloop
endfacet
facet normal -0.211363 0.949703 -0.231064
  outer loop
    vertex -0.135593 0.480006 -0.034772
    vertex -0.0207602 0.482746 -0.128552
    vertex -0.141363 0.441742 -0.186764
  endloop
endfacet
facet normal -0.347286 -0.255542 0.90227
  outer loop
    vertex -0.179024 -0.202224 0.42078
    vertex -0.0968713 -0.122365 0.475019
    vertex -0.225171 -0.0665794 0.441435
  endloop
endfacet
facet normal -0.0165582 -0.1874 0.982144
  outer loop
    vertex 3.06162e-17 -7.4988e-33 0.5
    vertex -0.0968713 -0.122365 0.475019
    vertex 0.0753163 -0.134909 0.475528
  endloop
endfacet
facet normal 0.673295 0.530421 0.5151
  outer loop
    vertex 0.297109 0.226526 0.332283
    vertex 0.379091 0.274826 0.175387
    vertex 0.280591 0.337248 0.239859
  endloop
endfacet
facet normal 0.40684 -0.578854 -0.706689
  outer loop
    vertex 0.271057 -0.22943 -0.35198
    vertex 0.226622 -0.343151 -0.284411
    vertex 0.133003 -0.263315 -0.403702
  endloop
endfacet
facet normal 0.143815 -0.989365 0.021759
  outer loop
    vertex 0.13882 -0.476264 0.0624635
    vertex -0.00529791 -0.497493 0.0497238
    vertex 0.0764474 -0.488359 -0.0752416
  endloop
endfacet
facet normal -0.444907 -0.895419 0.0168268
  outer loop
    vertex -0.151188 -0.474003 0.0496309
    vertex -0.278796 -0.410361 0.0622615
    vertex -0.228388 -0.438029 -0.0772606
  endloop
endfacet
facet normal 0.880986 -0.446387 0.156852
  outer loop
    vertex 0.393672 -0.29032 0.103617
    vertex 0.439451 -0.23843 -0.00583299
    vertex 0.469117 -0.144299 0.0954303
  endloop
endfacet
facet normal 0.434586 -0.898142 0.066902
  outer loop
    vertex 0.224749 -0.443362 -0.0540193
    vertex 0.279269 -0.407027 0.079609
    vertex 0.13882 -0.476264 0.0624635
  endloop
endfacet
facet normal -0.0983734 0.990934 -0.0915051
  outer loop
    vertex 0.00882382 0.499485 0.0209124
    vertex -0.0207602 0.482746 -0.128552
    vertex -0.135593 0.480006 -0.034772
  endloop
endfacet
facet normal -0.595951 0.802628 -0.0251046
  outer loop
    vertex -0.264841 0.413661 -0.0935091
    vertex -0.363976 0.342692 -0.00914031
    vertex -0.250007 0.429356 0.0561283
  endloop
endfacet
facet normal 0.407397 -0.430097 -0.805633
  outer loop
    vertex 0.218576 -0.134909 -0.42898
    vertex 0.271057 -0.22943 -0.35198
    vertex 0.133003 -0.263315 -0.403702
  endloop
endfacet
facet normal -0.00793963 -0.996917 -0.0780622
  outer loop
    vertex 0.0764474 -0.488359 -0.0752416
    vertex -0.00529791 -0.497493 0.0497238
    vertex -0.0797061 -0.486449 -0.0837514
  endloop
endfacet
facet normal -0.585783 -0.808847 -0.0512379
  outer loop
    vertex -0.228388 -0.438029 -0.0772606
    vertex -0.278796 -0.410361 0.0622615
    vertex -0.35456 -0.347956 -0.0566905
  endloop
endfacet
facet normal -0.669076 0.721181 -0.17954
  outer loop
    vertex -0.363323 0.307417 -0.153268
    vertex -0.363976 0.342692 -0.00914031
    vertex -0.264841 0.413661 -0.0935091
  endloop
endfacet
facet normal -0.644458 0.754627 0.123333
  outer loop
    vertex -0.250007 0.429356 0.0561283
    vertex -0.363976 0.342692 -0.00914031
    vertex -0.343279 0.336315 0.138028
  endloop
endfacet
facet normal 0.570344 0.172743 0.803036
  outer loop
    vertex 0.293893 -7.19829e-17 0.404508
    vertex 0.344205 0.114217 0.344205
    vertex 0.218576 0.134909 0.42898
  endloop
endfacet
facet normal 0.803036 0.172743 0.570344
  outer loop
    vertex 0.42898 0.134909 0.218576
    vertex 0.344205 0.114217 0.344205
    vertex 0.404508 -9.9076e-17 0.293893
  endloop
endfacet
facet normal 0.219883 0.702591 -0.676769
  outer loop
    vertex 0.0257135 0.370807 -0.334427
    vertex 0.158144 0.386122 -0.275501
    vertex 0.153716 0.288313 -0.37848
  endloop
endfacet
facet normal 0.247843 -0.92441 0.289895
  outer loop
    vertex 0.13882 -0.476264 0.0624635
    vertex 0.196988 -0.426886 0.170188
    vertex 0.05398 -0.458057 0.193053
  endloop
endfacet
facet normal -0.769067 0.6247 0.135227
  outer loop
    vertex -0.343279 0.336315 0.138028
    vertex -0.363976 0.342692 -0.00914031
    vertex -0.432653 0.242307 0.0640225
  endloop
endfacet
facet normal -0.689714 -0.721527 0.0607687
  outer loop
    vertex -0.35456 -0.347956 -0.0566905
    vertex -0.278796 -0.410361 0.0622615
    vertex -0.382378 -0.30888 0.0915433
  endloop
endfacet
facet normal -0.158965 -0.98726 0.00692899
  outer loop
    vertex -0.0797061 -0.486449 -0.0837514
    vertex -0.00529791 -0.497493 0.0497238
    vertex -0.151188 -0.474003 0.0496309
  endloop
endfacet
facet normal -0.0373004 -0.189087 -0.981252
  outer loop
    vertex 0.0698332 -0.131524 -0.47731
    vertex -0.0988396 -0.144075 -0.468479
    vertex 3.06162e-17 -7.4988e-33 -0.5
  endloop
endfacet
facet normal -0.624089 -0.601506 0.498701
  outer loop
    vertex -0.368519 -0.244384 0.233388
    vertex -0.292217 -0.356573 0.19356
    vertex -0.260154 -0.292112 0.311433
  endloop
endfacet
facet normal 0.0757312 0.989165 -0.125768
  outer loop
    vertex 0.122658 0.477543 -0.0831133
    vertex -0.0207602 0.482746 -0.128552
    vertex 0.00882382 0.499485 0.0209124
  endloop
endfacet
facet normal 0.800815 -0.158175 0.577647
  outer loop
    vertex 0.352575 -0.125954 0.331401
    vertex 0.436149 -0.102513 0.221957
    vertex 0.404508 -9.9076e-17 0.293893
  endloop
endfacet
facet normal -0.879881 0.258057 0.399018
  outer loop
    vertex -0.405844 0.207953 0.205051
    vertex -0.47076 0.118514 0.119747
    vertex -0.430705 0.0579187 0.247263
  endloop
endfacet
facet normal -0.222125 -0.532983 0.816449
  outer loop
    vertex -0.179024 -0.202224 0.42078
    vertex -0.128417 -0.336239 0.347062
    vertex -0.0214968 -0.2496 0.43271
  endloop
endfacet
facet normal 0.419977 0.868337 0.263836
  outer loop
    vertex 0.177306 0.415375 0.214537
    vertex 0.288601 0.390585 0.118965
    vertex 0.154416 0.470394 0.0698967
  endloop
endfacet
facet normal 0.120815 0.954678 -0.272018
  outer loop
    vertex 0.0739638 0.447332 -0.210768
    vertex -0.0207602 0.482746 -0.128552
    vertex 0.122658 0.477543 -0.0831133
  endloop
endfacet
facet normal 0.939098 0.187145 -0.28822
  outer loop
    vertex 0.42898 0.134909 -0.218576
    vertex 0.483233 0.116644 -0.0536655
    vertex 0.475528 -1.16471e-16 -0.154508
  endloop
endfacet
facet normal 0.704799 -0.0807198 0.704799
  outer loop
    vertex 0.293893 -7.19829e-17 0.404508
    vertex 0.352575 -0.125954 0.331401
    vertex 0.404508 -9.9076e-17 0.293893
  endloop
endfacet
facet normal 0.577878 -0.178145 -0.796443
  outer loop
    vertex 0.293893 -7.19829e-17 -0.404508
    vertex 0.346082 -0.123942 -0.338919
    vertex 0.218576 -0.134909 -0.42898
  endloop
endfacet
facet normal -0.713901 -0.608538 0.346449
  outer loop
    vertex -0.382378 -0.30888 0.0915433
    vertex -0.292217 -0.356573 0.19356
    vertex -0.368519 -0.244384 0.233388
  endloop
endfacet
facet normal -0.864333 -0.334087 -0.375918
  outer loop
    vertex -0.397816 -0.249814 -0.171276
    vertex -0.47048 -0.117962 -0.121383
    vertex -0.406072 -0.124103 -0.264014
  endloop
endfacet
facet normal -0.0934884 -0.639215 0.763324
  outer loop
    vertex -0.0214968 -0.2496 0.43271
    vertex -0.128417 -0.336239 0.347062
    vertex 0.0258578 -0.359815 0.346214
  endloop
endfacet
facet normal 0.932188 0.16983 0.319661
  outer loop
    vertex 0.475528 -1.16471e-16 0.154508
    vertex 0.485085 0.0937558 0.0768298
    vertex 0.42898 0.134909 0.218576
  endloop
endfacet
facet normal -0.130685 0.91754 -0.375556
  outer loop
    vertex -0.0207602 0.482746 -0.128552
    vertex -0.0434664 0.427473 -0.255691
    vertex -0.141363 0.441742 -0.186764
  endloop
endfacet
facet normal 0.795673 -0.603941 0.0464726
  outer loop
    vertex 0.355944 -0.350092 -0.0271967
    vertex 0.439451 -0.23843 -0.00583299
    vertex 0.393672 -0.29032 0.103617
  endloop
endfacet
facet normal 0.142071 0.628724 -0.76454
  outer loop
    vertex 0.0257135 0.370807 -0.334427
    vertex 0.153716 0.288313 -0.37848
    vertex 0.063478 0.243646 -0.431981
  endloop
endfacet
facet normal 0.45322 -0.760165 0.465553
  outer loop
    vertex 0.173759 -0.363995 0.295492
    vertex 0.196988 -0.426886 0.170188
    vertex 0.297685 -0.342505 0.209938
  endloop
endfacet
facet normal -0.882549 0.389955 0.262758
  outer loop
    vertex -0.432653 0.242307 0.0640225
    vertex -0.47076 0.118514 0.119747
    vertex -0.405844 0.207953 0.205051
  endloop
endfacet
facet normal -0.901427 -0.165832 -0.399912
  outer loop
    vertex -0.406072 -0.124103 -0.264014
    vertex -0.47048 -0.117962 -0.121383
    vertex -0.460848 0.00456691 -0.193904
  endloop
endfacet
facet normal 0.805941 -0.581847 -0.109144
  outer loop
    vertex 0.407623 -0.259521 -0.128424
    vertex 0.439451 -0.23843 -0.00583299
    vertex 0.355944 -0.350092 -0.0271967
  endloop
endfacet
facet normal -0.894736 -0.0444 0.444383
  outer loop
    vertex -0.430705 0.0579187 0.247263
    vertex -0.478642 -0.0241338 0.142546
    vertex -0.420576 -0.0977846 0.252099
  endloop
endfacet
facet normal 0.498015 0.780718 0.37744
  outer loop
    vertex 0.280591 0.337248 0.239859
    vertex 0.288601 0.390585 0.118965
    vertex 0.177306 0.415375 0.214537
  endloop
endfacet
facet normal 0.523229 0.590755 0.614199
  outer loop
    vertex 0.189046 0.317974 0.336385
    vertex 0.297109 0.226526 0.332283
    vertex 0.280591 0.337248 0.239859
  endloop
endfacet
facet normal -0.788286 0.201904 -0.581239
  outer loop
    vertex -0.419526 0.15769 -0.221657
    vertex -0.333351 0.149349 -0.341426
    vertex -0.378458 0.0167021 -0.326329
  endloop
endfacet
facet normal -0.00276404 0.91726 -0.39828
  outer loop
    vertex 0.0739638 0.447332 -0.210768
    vertex -0.0434664 0.427473 -0.255691
    vertex -0.0207602 0.482746 -0.128552
  endloop
endfacet
facet normal -0.64664 0.621133 -0.442776
  outer loop
    vertex -0.260339 0.356383 -0.234978
    vertex -0.333989 0.252172 -0.273606
    vertex -0.363323 0.307417 -0.153268
  endloop
endfacet
facet normal 0.705049 -0.0762308 -0.705049
  outer loop
    vertex 0.404508 -9.9076e-17 -0.293893
    vertex 0.346082 -0.123942 -0.338919
    vertex 0.293893 -7.19829e-17 -0.404508
  endloop
endfacet
facet normal -0.30432 0.813769 0.495146
  outer loop
    vertex -0.220786 0.403446 0.196174
    vertex -0.188551 0.351228 0.301807
    vertex -0.0685574 0.421181 0.260589
  endloop
endfacet
facet normal -0.479029 0.571732 0.666073
  outer loop
    vertex -0.218447 0.222283 0.390987
    vertex -0.188551 0.351228 0.301807
    vertex -0.301971 0.292563 0.270593
  endloop
endfacet
facet normal 0.913238 0.301626 0.273896
  outer loop
    vertex 0.42898 0.134909 0.218576
    vertex 0.485085 0.0937558 0.0768298
    vertex 0.45219 0.202739 0.0664914
  endloop
endfacet
facet normal -0.568723 -0.013255 0.822422
  outer loop
    vertex -0.225171 -0.0665794 0.441435
    vertex -0.281138 0.0826138 0.405138
    vertex -0.353079 -0.00907413 0.353911
  endloop
endfacet
facet normal -0.566217 0.330642 0.755032
  outer loop
    vertex -0.350211 0.14919 0.324183
    vertex -0.281138 0.0826138 0.405138
    vertex -0.218447 0.222283 0.390987
  endloop
endfacet
facet normal 0.027122 -0.828085 -0.559946
  outer loop
    vertex -0.0604165 -0.394776 -0.300835
    vertex 0.0724232 -0.37813 -0.319019
    vertex 0.00582706 -0.453057 -0.211437
  endloop
endfacet
facet normal -0.0559971 -0.907418 0.416481
  outer loop
    vertex -0.0872428 -0.420187 0.256577
    vertex -0.0793146 -0.471909 0.144952
    vertex 0.05398 -0.458057 0.193053
  endloop
endfacet
facet normal 0.220985 0.461963 0.858927
  outer loop
    vertex 0.0841198 0.174468 0.460961
    vertex 0.176417 0.231864 0.406345
    vertex 0.0593555 0.275624 0.412927
  endloop
endfacet
facet normal -0.276986 -0.777704 -0.564318
  outer loop
    vertex -0.148523 -0.427619 -0.212328
    vertex -0.188596 -0.336857 -0.317741
    vertex -0.0604165 -0.394776 -0.300835
  endloop
endfacet
facet normal 0.0254213 0.870485 0.491539
  outer loop
    vertex 0.0361705 0.467983 0.172288
    vertex -0.0685574 0.421181 0.260589
    vertex 0.0546123 0.392739 0.304588
  endloop
endfacet
facet normal -0.259976 0.163762 -0.951627
  outer loop
    vertex -0.0622472 0.136224 -0.477041
    vertex -0.12742 -0.00459613 -0.48347
    vertex -0.193402 0.130758 -0.442151
  endloop
endfacet
facet normal 0.782696 0.556571 -0.278594
  outer loop
    vertex 0.431572 0.236842 -0.0874741
    vertex 0.383131 0.24434 -0.208588
    vertex 0.345174 0.339166 -0.125783
  endloop
endfacet
facet normal 0.705758 0.0617334 0.705758
  outer loop
    vertex 0.404508 -9.9076e-17 0.293893
    vertex 0.344205 0.114217 0.344205
    vertex 0.293893 -7.19829e-17 0.404508
  endloop
endfacet
facet normal 0.565757 0.318007 0.760783
  outer loop
    vertex 0.344205 0.114217 0.344205
    vertex 0.297109 0.226526 0.332283
    vertex 0.218576 0.134909 0.42898
  endloop
endfacet
facet normal -0.9873 0.147615 -0.0587315
  outer loop
    vertex -0.497124 0.0339748 0.041399
    vertex -0.478469 0.144986 0.00682227
    vertex -0.493786 0.00875607 -0.0780962
  endloop
endfacet
facet normal -0.984103 0.159429 -0.0782605
  outer loop
    vertex -0.493786 0.00875607 -0.0780962
    vertex -0.478469 0.144986 0.00682227
    vertex -0.473213 0.122379 -0.105322
  endloop
endfacet
facet normal -0.743489 0.364989 -0.560364
  outer loop
    vertex -0.419526 0.15769 -0.221657
    vertex -0.333989 0.252172 -0.273606
    vertex -0.333351 0.149349 -0.341426
  endloop
endfacet
facet normal -0.638362 0.130741 -0.758552
  outer loop
    vertex -0.333351 0.149349 -0.341426
    vertex -0.270337 -0.00239065 -0.420609
    vertex -0.378458 0.0167021 -0.326329
  endloop
endfacet
facet normal 0.569103 -0.335466 0.750723
  outer loop
    vertex 0.271732 -0.2496 0.337434
    vertex 0.352575 -0.125954 0.331401
    vertex 0.218576 -0.134909 0.42898
  endloop
endfacet
facet normal -0.646585 -0.726815 0.231661
  outer loop
    vertex -0.278796 -0.410361 0.0622615
    vertex -0.292217 -0.356573 0.19356
    vertex -0.382378 -0.30888 0.0915433
  endloop
endfacet
facet normal -0.598771 0.438392 -0.670288
  outer loop
    vertex -0.333351 0.149349 -0.341426
    vertex -0.333989 0.252172 -0.273606
    vertex -0.235252 0.256476 -0.358993
  endloop
endfacet
facet normal -0.384969 -0.552167 0.739534
  outer loop
    vertex -0.260154 -0.292112 0.311433
    vertex -0.128417 -0.336239 0.347062
    vertex -0.179024 -0.202224 0.42078
  endloop
endfacet
facet normal -0.0538658 0.763074 0.644063
  outer loop
    vertex 0.0546123 0.392739 0.304588
    vertex -0.0685574 0.421181 0.260589
    vertex -0.0788209 0.331738 0.365701
  endloop
endfacet
facet normal -0.461816 0.0423091 0.885966
  outer loop
    vertex -0.170163 0.0814903 0.463038
    vertex -0.281138 0.0826138 0.405138
    vertex -0.225171 -0.0665794 0.441435
  endloop
endfacet
facet normal 0.534287 -0.785138 0.313204
  outer loop
    vertex 0.297685 -0.342505 0.209938
    vertex 0.196988 -0.426886 0.170188
    vertex 0.279269 -0.407027 0.079609
  endloop
endfacet
facet normal -0.933028 0.106484 0.343685
  outer loop
    vertex -0.47076 0.118514 0.119747
    vertex -0.478642 -0.0241338 0.142546
    vertex -0.430705 0.0579187 0.247263
  endloop
endfacet
facet normal 0.311571 0.342418 0.886382
  outer loop
    vertex 0.218576 0.134909 0.42898
    vertex 0.176417 0.231864 0.406345
    vertex 0.0841198 0.174468 0.460961
  endloop
endfacet
facet normal -0.424306 -0.886966 0.182363
  outer loop
    vertex -0.151188 -0.474003 0.0496309
    vertex -0.189686 -0.431486 0.166852
    vertex -0.278796 -0.410361 0.0622615
  endloop
endfacet
facet normal -0.662458 -0.0673865 -0.746062
  outer loop
    vertex -0.378458 0.0167021 -0.326329
    vertex -0.270337 -0.00239065 -0.420609
    vertex -0.308448 -0.113811 -0.376706
  endloop
endfacet
facet normal 0.259111 -0.843109 0.471198
  outer loop
    vertex 0.05398 -0.458057 0.193053
    vertex 0.196988 -0.426886 0.170188
    vertex 0.173759 -0.363995 0.295492
  endloop
endfacet
facet normal -0.828523 0.559873 -0.00953095
  outer loop
    vertex -0.363976 0.342692 -0.00914031
    vertex -0.436503 0.234373 -0.0673374
    vertex -0.432653 0.242307 0.0640225
  endloop
endfacet
facet normal -0.441218 0.284277 0.851183
  outer loop
    vertex -0.218447 0.222283 0.390987
    vertex -0.281138 0.0826138 0.405138
    vertex -0.170163 0.0814903 0.463038
  endloop
endfacet
facet normal -0.982221 -0.136696 -0.128673
  outer loop
    vertex -0.492152 -0.0874662 0.0116569
    vertex -0.493786 0.00875607 -0.0780962
    vertex -0.47048 -0.117962 -0.121383
  endloop
endfacet
facet normal -0.500006 -0.323628 -0.80328
  outer loop
    vertex -0.308448 -0.113811 -0.376706
    vertex -0.206356 -0.108979 -0.4422
    vertex -0.196236 -0.220527 -0.403558
  endloop
endfacet
facet normal -0.538182 0.599827 -0.592087
  outer loop
    vertex -0.235252 0.256476 -0.358993
    vertex -0.333989 0.252172 -0.273606
    vertex -0.260339 0.356383 -0.234978
  endloop
endfacet
facet normal -0.100974 0.763321 -0.638079
  outer loop
    vertex -0.126511 0.362193 -0.320641
    vertex -0.0434664 0.427473 -0.255691
    vertex 0.0257135 0.370807 -0.334427
  endloop
endfacet
facet normal -0.781755 0.604881 -0.151586
  outer loop
    vertex -0.363323 0.307417 -0.153268
    vertex -0.436503 0.234373 -0.0673374
    vertex -0.363976 0.342692 -0.00914031
  endloop
endfacet
facet normal 0.985277 0.0698313 -0.156053
  outer loop
    vertex 0.475528 -1.16471e-16 -0.154508
    vertex 0.483233 0.116644 -0.0536655
    vertex 0.5 -1.22465e-16 7.65714e-16
  endloop
endfacet
facet normal 0.586594 -0.184433 0.788602
  outer loop
    vertex 0.218576 -0.134909 0.42898
    vertex 0.352575 -0.125954 0.331401
    vertex 0.293893 -7.19829e-17 0.404508
  endloop
endfacet
facet normal 0.947972 -0.317857 0.0177509
  outer loop
    vertex 0.469117 -0.144299 0.0954303
    vertex 0.439451 -0.23843 -0.00583299
    vertex 0.476661 -0.131293 -0.0745428
  endloop
endfacet
facet normal 0.0124755 0.171721 -0.985067
  outer loop
    vertex 3.06162e-17 -7.4988e-33 -0.5
    vertex -0.0622472 0.136224 -0.477041
    vertex 0.0753163 0.134909 -0.475528
  endloop
endfacet
facet normal -0.518328 -0.808635 0.27829
  outer loop
    vertex -0.278796 -0.410361 0.0622615
    vertex -0.189686 -0.431486 0.166852
    vertex -0.292217 -0.356573 0.19356
  endloop
endfacet
facet normal -0.402701 -0.0566704 -0.913576
  outer loop
    vertex -0.12742 -0.00459613 -0.48347
    vertex -0.206356 -0.108979 -0.4422
    vertex -0.270337 -0.00239065 -0.420609
  endloop
endfacet
facet normal -0.502347 0.704376 0.5015
  outer loop
    vertex -0.301971 0.292563 0.270593
    vertex -0.188551 0.351228 0.301807
    vertex -0.220786 0.403446 0.196174
  endloop
endfacet
facet normal 0.895663 -0.414477 -0.161234
  outer loop
    vertex 0.476661 -0.131293 -0.0745428
    vertex 0.439451 -0.23843 -0.00583299
    vertex 0.407623 -0.259521 -0.128424
  endloop
endfacet
facet normal 0.464347 0.516451 0.719486
  outer loop
    vertex 0.189046 0.317974 0.336385
    vertex 0.176417 0.231864 0.406345
    vertex 0.297109 0.226526 0.332283
  endloop
endfacet
facet normal -0.269837 -0.764031 0.586041
  outer loop
    vertex -0.128417 -0.336239 0.347062
    vertex -0.198547 -0.376989 0.261646
    vertex -0.0872428 -0.420187 0.256577
  endloop
endfacet
facet normal -0.690277 0.145636 0.708737
  outer loop
    vertex -0.353079 -0.00907413 0.353911
    vertex -0.281138 0.0826138 0.405138
    vertex -0.350211 0.14919 0.324183
  endloop
endfacet
facet normal 0.890162 -0.0435233 0.45356
  outer loop
    vertex 0.404508 -9.9076e-17 0.293893
    vertex 0.436149 -0.102513 0.221957
    vertex 0.475528 -1.16471e-16 0.154508
  endloop
endfacet
facet normal 0.493053 0.395327 0.774994
  outer loop
    vertex 0.297109 0.226526 0.332283
    vertex 0.176417 0.231864 0.406345
    vertex 0.218576 0.134909 0.42898
  endloop
endfacet
facet normal 0.261888 0.585138 0.767482
  outer loop
    vertex 0.0593555 0.275624 0.412927
    vertex 0.176417 0.231864 0.406345
    vertex 0.189046 0.317974 0.336385
  endloop
endfacet
facet normal -0.959229 -0.0842664 -0.269777
  outer loop
    vertex -0.47048 -0.117962 -0.121383
    vertex -0.493786 0.00875607 -0.0780962
    vertex -0.460848 0.00456691 -0.193904
  endloop
endfacet
facet normal 0.566391 -0.308185 -0.764345
  outer loop
    vertex 0.346082 -0.123942 -0.338919
    vertex 0.271057 -0.22943 -0.35198
    vertex 0.218576 -0.134909 -0.42898
  endloop
endfacet
facet normal 0.666935 0.623379 -0.408163
  outer loop
    vertex 0.345174 0.339166 -0.125783
    vertex 0.383131 0.24434 -0.208588
    vertex 0.283092 0.310477 -0.271041
  endloop
endfacet
facet normal 0.988974 0.147616 0.0118595
  outer loop
    vertex 0.483233 0.116644 -0.0536655
    vertex 0.485085 0.0937558 0.0768298
    vertex 0.5 -1.22465e-16 7.65714e-16
  endloop
endfacet
facet normal -0.955312 0.106936 -0.275579
  outer loop
    vertex -0.460848 0.00456691 -0.193904
    vertex -0.493786 0.00875607 -0.0780962
    vertex -0.473213 0.122379 -0.105322
  endloop
endfacet
facet normal 0.987275 0.0289245 0.156369
  outer loop
    vertex 0.5 -1.22465e-16 7.65714e-16
    vertex 0.485085 0.0937558 0.0768298
    vertex 0.475528 -1.16471e-16 0.154508
  endloop
endfacet
facet normal 0.670815 -0.399748 -0.624667
  outer loop
    vertex 0.348346 -0.253997 -0.25326
    vertex 0.271057 -0.22943 -0.35198
    vertex 0.346082 -0.123942 -0.338919
  endloop
endfacet
facet normal 0.860747 0.402929 0.311067
  outer loop
    vertex 0.45219 0.202739 0.0664914
    vertex 0.379091 0.274826 0.175387
    vertex 0.42898 0.134909 0.218576
  endloop
endfacet
facet normal -0.243014 0.821841 -0.515287
  outer loop
    vertex -0.141363 0.441742 -0.186764
    vertex -0.0434664 0.427473 -0.255691
    vertex -0.126511 0.362193 -0.320641
  endloop
endfacet
facet normal -0.226361 0.75262 0.618324
  outer loop
    vertex -0.0685574 0.421181 0.260589
    vertex -0.188551 0.351228 0.301807
    vertex -0.0788209 0.331738 0.365701
  endloop
endfacet
facet normal -0.987671 -0.0741913 0.137844
  outer loop
    vertex -0.478642 -0.0241338 0.142546
    vertex -0.497124 0.0339748 0.041399
    vertex -0.492152 -0.0874662 0.0116569
  endloop
endfacet
facet normal 0.29891 0.856365 -0.421061
  outer loop
    vertex 0.216943 0.415633 -0.173739
    vertex 0.158144 0.386122 -0.275501
    vertex 0.0739638 0.447332 -0.210768
  endloop
endfacet
facet normal 0.0137705 0.373035 -0.927715
  outer loop
    vertex 0.0753163 0.134909 -0.475528
    vertex -0.0622472 0.136224 -0.477041
    vertex 0.063478 0.243646 -0.431981
  endloop
endfacet
facet normal 0.416592 -0.890442 0.183205
  outer loop
    vertex 0.279269 -0.407027 0.079609
    vertex 0.196988 -0.426886 0.170188
    vertex 0.13882 -0.476264 0.0624635
  endloop
endfacet
facet normal -0.157481 -0.977517 0.140217
  outer loop
    vertex -0.00529791 -0.497493 0.0497238
    vertex -0.0793146 -0.471909 0.144952
    vertex -0.151188 -0.474003 0.0496309
  endloop
endfacet
facet normal 0.567965 0.318203 -0.759054
  outer loop
    vertex 0.222665 0.143892 -0.423929
    vertex 0.255435 0.229081 -0.363696
    vertex 0.343887 0.143758 -0.33328
  endloop
endfacet
facet normal -0.96927 0.0901396 0.228889
  outer loop
    vertex -0.47076 0.118514 0.119747
    vertex -0.497124 0.0339748 0.041399
    vertex -0.478642 -0.0241338 0.142546
  endloop
endfacet
facet normal -0.529012 -0.148294 -0.835557
  outer loop
    vertex -0.270337 -0.00239065 -0.420609
    vertex -0.206356 -0.108979 -0.4422
    vertex -0.308448 -0.113811 -0.376706
  endloop
endfacet
facet normal -0.246485 -0.885897 0.392979
  outer loop
    vertex -0.0872428 -0.420187 0.256577
    vertex -0.189686 -0.431486 0.166852
    vertex -0.0793146 -0.471909 0.144952
  endloop
endfacet
facet normal -0.304516 -0.837794 0.453178
  outer loop
    vertex -0.0872428 -0.420187 0.256577
    vertex -0.198547 -0.376989 0.261646
    vertex -0.189686 -0.431486 0.166852
  endloop
endfacet
facet normal 0.570202 -0.572727 -0.588944
  outer loop
    vertex 0.348346 -0.253997 -0.25326
    vertex 0.226622 -0.343151 -0.284411
    vertex 0.271057 -0.22943 -0.35198
  endloop
endfacet
facet normal -0.131685 0.10594 -0.985614
  outer loop
    vertex 3.06162e-17 -7.4988e-33 -0.5
    vertex -0.12742 -0.00459613 -0.48347
    vertex -0.0622472 0.136224 -0.477041
  endloop
endfacet
facet normal -0.291483 -0.925947 0.240124
  outer loop
    vertex -0.0793146 -0.471909 0.144952
    vertex -0.189686 -0.431486 0.166852
    vertex -0.151188 -0.474003 0.0496309
  endloop
endfacet
facet normal -0.1229 -0.13091 -0.983747
  outer loop
    vertex -0.0988396 -0.144075 -0.468479
    vertex -0.12742 -0.00459613 -0.48347
    vertex 3.06162e-17 -7.4988e-33 -0.5
  endloop
endfacet
facet normal -0.522051 -0.680519 0.514156
  outer loop
    vertex -0.292217 -0.356573 0.19356
    vertex -0.198547 -0.376989 0.261646
    vertex -0.260154 -0.292112 0.311433
  endloop
endfacet
facet normal -0.925327 0.350237 0.14527
  outer loop
    vertex -0.432653 0.242307 0.0640225
    vertex -0.478469 0.144986 0.00682227
    vertex -0.47076 0.118514 0.119747
  endloop
endfacet
facet normal -0.467187 -0.784684 0.40744
  outer loop
    vertex -0.189686 -0.431486 0.166852
    vertex -0.198547 -0.376989 0.261646
    vertex -0.292217 -0.356573 0.19356
  endloop
endfacet
facet normal -0.394104 -0.660766 0.638804
  outer loop
    vertex -0.260154 -0.292112 0.311433
    vertex -0.198547 -0.376989 0.261646
    vertex -0.128417 -0.336239 0.347062
  endloop
endfacet
facet normal -0.90494 0.425538 0.000823091
  outer loop
    vertex -0.436503 0.234373 -0.0673374
    vertex -0.478469 0.144986 0.00682227
    vertex -0.432653 0.242307 0.0640225
  endloop
endfacet
facet normal -0.999148 -0.0359231 -0.0203279
  outer loop
    vertex -0.492152 -0.0874662 0.0116569
    vertex -0.497124 0.0339748 0.041399
    vertex -0.493786 0.00875607 -0.0780962
  endloop
endfacet
facet normal -0.932186 0.343887 -0.113011
  outer loop
    vertex -0.473213 0.122379 -0.105322
    vertex -0.478469 0.144986 0.00682227
    vertex -0.436503 0.234373 -0.0673374
  endloop
endfacet
facet normal -0.973496 0.198804 0.11306
  outer loop
    vertex -0.47076 0.118514 0.119747
    vertex -0.478469 0.144986 0.00682227
    vertex -0.497124 0.0339748 0.041399
  endloop
endfacet
facet normal -0.283264 -0.159676 -0.945656
  outer loop
    vertex -0.0988396 -0.144075 -0.468479
    vertex -0.206356 -0.108979 -0.4422
    vertex -0.12742 -0.00459613 -0.48347
  endloop
endfacet
facet normal -0.0679651 0.207676 0.975834
  outer loop
    vertex -0.170163 0.0814903 0.463038
    vertex 0.0841198 0.174468 0.460961
    vertex -0.0785769 0.22722 0.438402
  endloop
endfacet
endsolid Created by Gmsh
